<svg width="637" height="768" viewBox="0 0 637 768" fill="black" xmlns="http://www.w3.org/2000/svg">
<path d="M328.091 0C376.091 0 418.757 8.60625 456.091 25.8184C493.424 42.788 523 66.061 544.818 95.6367C566.701 124.974 578.325 158.248 579.693 195.457C613.566 211.473 637 245.954 637 285.909C637 341.138 592.228 385.909 537 385.909C481.772 385.909 437 341.138 437 285.909C437 246.686 459.582 212.738 492.453 196.355C488.088 159.511 470.391 130.908 439.363 110.546C408.333 90.1823 370.273 80 325.182 80C292.212 80 263.364 85.3334 238.637 96C214.152 106.667 195 121.333 181.182 140C167.606 158.667 160.818 179.879 160.818 203.637C160.818 223.515 165.546 240.606 175 254.909C184.697 268.97 197.061 280.727 212.091 290.182C227.121 299.394 242.879 307.03 259.363 313.091C275.848 318.909 291 323.636 304.818 327.272L380.454 347.637C399.848 352.728 421.424 359.758 445.182 368.728C469.182 377.697 492.091 389.94 513.909 405.455C535.97 420.728 554.152 440.363 568.455 464.363C582.758 488.363 589.909 517.818 589.909 552.728C589.909 592.97 579.363 629.334 558.272 661.818C537.424 694.303 506.879 720.121 466.637 739.272C426.637 758.424 378.03 768 320.818 768C267.485 768 221.303 759.394 182.272 742.182C143.485 724.97 112.94 700.969 90.6367 670.182C68.6484 639.495 56.1731 603.871 53.2109 563.31C21.5592 546.522 0 513.234 0 474.909C0 419.681 44.7715 374.909 100 374.909C155.228 374.909 200 419.681 200 474.909C200 513.418 178.232 546.841 146.33 563.55C148.842 591.384 158.277 614.443 174.637 632.728C191.364 650.909 212.455 664.485 237.909 673.455C263.606 682.182 291.243 686.546 320.818 686.546C355.243 686.546 386.152 680.97 413.546 669.818C440.94 658.424 462.637 642.667 478.637 622.546C494.637 602.182 502.637 578.424 502.637 551.272C502.637 526.545 495.727 506.424 481.909 490.909C468.091 475.394 449.909 462.788 427.363 453.091C404.818 443.394 380.454 434.909 354.272 427.637L262.637 401.455C204.455 384.728 158.394 360.849 124.454 329.818C90.5148 298.788 73.5459 258.182 73.5459 208C73.5459 166.303 84.8179 129.939 107.363 98.9092C130.151 67.6364 160.697 43.3938 199 26.1816C237.545 8.72713 280.576 1.12121e-05 328.091 0Z" fill="currentColor"/>
</svg>
